# File created by Blade
# Date/Time:  Wed Sep 24 19:53:44 2014
# Frame Rate: 120.000 fps
#------------------------------------------------------
:FULLY-SPECIFIED
:DEGREES
4034
root -5.924799 32.866722 -3.965391 9.981360 16.660954 -0.533680
Spine -14.620336 28.921001 -1.403667
Head -3.765648 -38.611658 12.181754
LeftShoulder -24.690975 20.967945 19.152085
LeftArm -144.110565 -86.797160 105.440945
LeftForeArm -65.070141 -0.000000 96.494948
LeftHand -16.864727 -0.000000 9.747126
LeftHandThumb1 -26.253704 0.000000 33.147579
RightShoulder -21.871045 8.955052 -21.100115
RightArm -22.186908 -2.899671 78.386360
RightForeArm -24.859190 -0.000000 24.984675
RightHand -8.972803 -0.000000 6.504950
RightHandThumb1 -24.326973 -0.000000 -32.862282
LeftUpLeg -5.676761 -5.405914 6.129296
LeftLeg -2.148266 -0.000000 0.000000
LeftFoot -8.587324 3.415695 -18.928482
LeftToeBase 11.775597 -0.000000 -0.000000
RightUpLeg -1.900160 -19.867345 -1.845812
RightLeg -0.021985 -0.000000 0.000000
RightFoot -6.885203 -5.319842 -10.696278
RightToeBase -1.249826 -0.000000 0.000000
4035
root -5.918372 32.866348 -3.952020 10.039154 16.656775 -0.518133
Spine -14.765237 29.117865 -1.431481
Head -3.563639 -38.805294 12.036670
LeftShoulder -24.756021 20.973942 18.920396
LeftArm -140.018190 -86.961953 100.749742
LeftForeArm -65.488530 0.000000 96.081814
LeftHand -17.519213 -0.000000 10.371366
LeftHandThumb1 -26.253704 0.000000 33.147579
RightShoulder -21.986984 8.895528 -21.123224
RightArm -22.425123 -2.886703 78.327421
RightForeArm -24.740977 -0.000000 24.772436
RightHand -9.071948 -0.000000 6.526639
RightHandThumb1 -24.326973 -0.000000 -32.862282
LeftUpLeg -5.700556 -5.405123 6.112647
LeftLeg -2.152829 -0.000000 0.000000
LeftFoot -8.618306 3.411379 -18.955278
LeftToeBase 11.880666 -0.000000 -0.000000
RightUpLeg -1.891158 -19.905045 -1.858722
RightLeg -0.103710 -0.000000 0.000000
RightFoot -6.864402 -5.253739 -10.669045
RightToeBase -1.238117 -0.000000 0.000000
4036
root -5.910983 32.865394 -3.938546 10.088933 16.677429 -0.479017
Spine -14.889954 29.247832 -1.482163
Head -3.373780 -38.929382 11.994006
LeftShoulder -24.859990 21.051413 18.656904
LeftArm -133.648599 -87.282853 93.750425
LeftForeArm -65.467526 -0.000000 95.771673
LeftHand -17.590155 -0.000000 10.599110
LeftHandThumb1 -26.253704 0.000000 33.147579
RightShoulder -22.055843 8.805745 -21.088946
RightArm -22.578227 -2.915132 78.261611
RightForeArm -24.551044 0.000000 24.448235
RightHand -8.939147 0.000000 6.595307
RightHandThumb1 -24.326973 -0.000000 -32.862282
LeftUpLeg -5.708181 -5.418517 6.073779
LeftLeg -2.172065 -0.000000 0.000000
LeftFoot -8.589418 3.397202 -18.922721
LeftToeBase 11.737085 -0.000000 -0.000000
RightUpLeg -1.858991 -19.942734 -1.896574
RightLeg -0.187502 -0.000000 0.000000
RightFoot -6.843913 -5.226262 -10.642526
RightToeBase -1.304855 -0.000000 0.000000
4037
root -5.904543 32.863828 -3.926906 10.153372 16.743176 -0.433109
Spine -15.035159 29.356535 -1.546596
Head -3.194374 -39.112791 11.945655
LeftShoulder -24.868042 20.986226 18.453996
LeftArm -118.256294 -87.572707 77.768208
LeftForeArm -65.144142 -0.000000 95.599561
LeftHand -17.683377 0.000000 11.160924
LeftHandThumb1 -26.253704 0.000000 33.147579
RightShoulder -22.107836 8.744468 -21.076681
RightArm -22.796417 -2.914174 78.200763
RightForeArm -24.327947 -0.000000 24.121755
RightHand -8.865595 0.000000 6.689256
RightHandThumb1 -24.326973 -0.000000 -32.862282
LeftUpLeg -5.741715 -5.447805 6.039288
LeftLeg -2.203462 -0.000000 0.000000
LeftFoot -8.613076 3.360268 -19.113500
LeftToeBase 12.040941 -0.000000 -0.000000
RightUpLeg -1.841207 -19.994847 -1.928298
RightLeg -0.264374 -0.000000 0.000000
RightFoot -6.845089 -5.241958 -10.624546
RightToeBase -1.284347 -0.000000 0.000000
4038
root -5.894324 32.861352 -3.907564 10.195722 16.923037 -0.391909
Spine -15.180650 29.344112 -1.560543
Head -2.980954 -39.272043 11.887123
LeftShoulder -24.922798 21.057493 18.175868
LeftArm -99.344405 -87.748821 58.296564
LeftForeArm -64.999340 -0.000000 95.487828
LeftHand -17.909240 -0.000000 11.499783
LeftHandThumb1 -26.253704 0.000000 33.147579
RightShoulder -22.154624 8.618714 -21.070192
RightArm -22.943221 -2.958442 78.161134
RightForeArm -24.174393 -0.000000 23.733838
RightHand -8.747278 -0.000000 6.807137
RightHandThumb1 -24.326973 -0.000000 -32.862282
LeftUpLeg -5.758224 -5.559733 6.019044
LeftLeg -2.213776 -0.000000 0.000000
LeftFoot -8.555724 3.290802 -18.934903
LeftToeBase 11.726823 -0.000000 -0.000000
RightUpLeg -1.754235 -20.199036 -1.957709
RightLeg -0.374070 -0.000000 0.000000
RightFoot -6.835073 -5.192059 -10.576586
RightToeBase -1.305587 -0.000000 0.000000
4039
root -5.887665 32.857816 -3.896179 10.263690 17.034395 -0.323556
Spine -15.316669 29.398563 -1.640249
Head -2.857814 -39.436695 11.874418
LeftShoulder -24.932733 21.165056 17.861854
LeftArm -80.765431 -87.711376 39.167182
LeftForeArm -64.988974 0.000000 95.498762
LeftHand -18.098821 -0.000000 11.874584
LeftHandThumb1 -26.253704 0.000000 33.147579
RightShoulder -22.198766 8.475115 -21.057915
RightArm -23.046213 -2.994231 78.148823
RightForeArm -24.019683 -0.000000 23.343041
RightHand -8.605576 -0.000000 7.104827
RightHandThumb1 -24.326973 -0.000000 -32.862282
LeftUpLeg -5.801268 -5.583310 5.966637
LeftLeg -2.224580 -0.000000 0.000000
LeftFoot -8.519483 3.185954 -18.928558
LeftToeBase 11.731655 -0.000000 -0.000000
RightUpLeg -1.703884 -20.181427 -2.012038
RightLeg -0.490093 -0.000000 0.000000
RightFoot -6.816255 -5.308628 -10.551915
RightToeBase -1.293856 -0.000000 0.000000
